<svg width="24" height="25" viewBox="0 0 24 25" fill="none" xmlns="http://www.w3.org/2000/svg">
<g clip-path="url(#clip0_2083_37)">
<path d="M12 24.9478C18.6274 24.9478 24 19.5752 24 12.9478C24 6.32034 18.6274 0.947754 12 0.947754C5.37258 0.947754 0 6.32034 0 12.9478C0 19.5752 5.37258 24.9478 12 24.9478Z" fill="#990099"/>
<path d="M12.2245 13.0778C11.4628 13.0791 10.7325 13.3816 10.193 13.9193C9.65343 14.4569 9.34841 15.1861 9.34445 15.9478V17.2228H15.1095V15.9478C15.1016 15.1865 14.7946 14.4588 14.2549 13.9218C13.7151 13.3849 12.9858 13.0817 12.2245 13.0778ZM12.2245 12.1978C13.2217 12.1965 14.1789 12.5904 14.8864 13.2932C15.5939 13.996 15.9942 14.9506 15.9995 15.9478V18.1028H8.45445V15.9478C8.45974 14.9514 8.85927 13.9976 9.56571 13.2949C10.2721 12.5923 11.228 12.1978 12.2245 12.1978ZM16.6495 11.6178C17.0049 11.5942 17.3612 11.6469 17.6946 11.7722C18.028 11.8976 18.3308 12.0927 18.5827 12.3446C18.8346 12.5964 19.0297 12.8992 19.155 13.2326C19.2804 13.5661 19.333 13.9224 19.3095 14.2778V16.9478H16.3945V16.0478H18.4195V14.2678C18.4383 14.0306 18.4054 13.7921 18.3231 13.5688C18.2408 13.3455 18.1111 13.1427 17.9428 12.9745C17.7745 12.8062 17.5718 12.6764 17.3485 12.5942C17.1252 12.5119 16.8867 12.479 16.6495 12.4978C16.3823 12.4969 16.1177 12.5496 15.8712 12.6526C15.6248 12.7557 15.4015 12.907 15.2145 13.0978L14.5845 12.4778C14.8536 12.2035 15.175 11.9861 15.5297 11.8384C15.8844 11.6906 16.2652 11.6156 16.6495 11.6178ZM7.59445 11.6178C8.40028 11.6132 9.17646 11.9215 9.75945 12.4778L9.12945 13.0978C8.71499 12.7095 8.16743 12.4947 7.59945 12.4978C6.59945 12.4978 5.59945 13.1078 5.59945 14.2678V16.0378H8.06445V16.9478H4.68945V14.2678C4.68945 12.7628 5.93445 11.6178 7.59445 11.6178ZM16.6495 9.05782C16.4902 9.05782 16.3346 9.10503 16.2022 9.19349C16.0698 9.28194 15.9667 9.40767 15.9057 9.55476C15.8448 9.70186 15.8289 9.86371 15.8599 10.0199C15.891 10.176 15.9676 10.3195 16.0802 10.432C16.1928 10.5446 16.3363 10.6213 16.4924 10.6524C16.6486 10.6834 16.8104 10.6675 16.9575 10.6065C17.1046 10.5456 17.2303 10.4424 17.3188 10.3101C17.4072 10.1777 17.4545 10.022 17.4545 9.86282C17.4551 9.75692 17.4347 9.65195 17.3945 9.55398C17.3543 9.45601 17.295 9.36701 17.2202 9.29212C17.1453 9.21724 17.0563 9.15797 16.9583 9.11775C16.8603 9.07753 16.7554 9.05716 16.6495 9.05782ZM7.59445 9.05782C7.43524 9.05782 7.2796 9.10503 7.14722 9.19349C7.01484 9.28194 6.91166 9.40767 6.85073 9.55476C6.7898 9.70186 6.77386 9.86371 6.80492 10.0199C6.83598 10.176 6.91265 10.3195 7.02523 10.432C7.13781 10.5446 7.28125 10.6213 7.43741 10.6524C7.59356 10.6834 7.75542 10.6675 7.90251 10.6065C8.04961 10.5456 8.17533 10.4424 8.26379 10.3101C8.35224 10.1777 8.39945 10.022 8.39945 9.86282C8.39814 9.64973 8.31291 9.44573 8.16223 9.29505C8.01154 9.14437 7.80755 9.05913 7.59445 9.05782ZM12.2095 8.66282C11.9721 8.66282 11.7401 8.7332 11.5428 8.86506C11.3454 8.99692 11.1916 9.18433 11.1008 9.4036C11.01 9.62287 10.9862 9.86415 11.0325 10.0969C11.0788 10.3297 11.1931 10.5435 11.3609 10.7113C11.5287 10.8792 11.7426 10.9935 11.9753 11.0398C12.2081 11.0861 12.4494 11.0623 12.6687 10.9715C12.8879 10.8807 13.0754 10.7268 13.2072 10.5295C13.3391 10.3322 13.4095 10.1002 13.4095 9.86282C13.4101 9.70463 13.3794 9.54787 13.319 9.40165C13.2586 9.25544 13.1698 9.12266 13.0577 9.01103C12.9456 8.8994 12.8125 8.81114 12.666 8.75137C12.5195 8.69159 12.3626 8.6615 12.2045 8.66282H12.2095ZM16.6545 8.16282C16.9889 8.16183 17.3161 8.26011 17.5947 8.4452C17.8733 8.6303 18.0907 8.8939 18.2194 9.20262C18.348 9.51133 18.3822 9.85129 18.3176 10.1794C18.2529 10.5076 18.0924 10.8092 17.8562 11.0461C17.6201 11.2829 17.319 11.4444 16.991 11.51C16.663 11.5756 16.323 11.5424 16.0139 11.4147C15.7048 11.2869 15.4405 11.0703 15.2546 10.7923C15.0687 10.5142 14.9695 10.1873 14.9695 9.85282C14.9708 9.4072 15.148 8.98013 15.4627 8.66456C15.7773 8.34899 16.2038 8.17046 16.6495 8.16782L16.6545 8.16282ZM7.59945 8.16282C7.93391 8.16183 8.26115 8.26011 8.53972 8.4452C8.8183 8.6303 9.03569 8.8939 9.16437 9.20262C9.29305 9.51133 9.32723 9.85129 9.26259 10.1794C9.19794 10.5076 9.03738 10.8092 8.80123 11.0461C8.56508 11.2829 8.26396 11.4444 7.936 11.51C7.60804 11.5756 7.26798 11.5424 6.95888 11.4147C6.64978 11.2869 6.38554 11.0703 6.19962 10.7923C6.0137 10.5142 5.91445 10.1873 5.91445 9.85282C5.91576 9.4072 6.09303 8.98013 6.40766 8.66456C6.7223 8.34899 7.14884 8.17046 7.59445 8.16782L7.59945 8.16282ZM12.2145 7.76782C12.6278 7.76782 13.0319 7.8904 13.3756 8.12005C13.7193 8.3497 13.9872 8.67612 14.1454 9.05801C14.3035 9.43991 14.3449 9.86014 14.2643 10.2656C14.1837 10.671 13.9846 11.0434 13.6923 11.3357C13.4 11.628 13.0276 11.827 12.6222 11.9077C12.2168 11.9883 11.7965 11.9469 11.4146 11.7887C11.0327 11.6305 10.7063 11.3627 10.4767 11.019C10.247 10.6753 10.1245 10.2712 10.1245 9.85782C10.1271 9.30652 10.3469 8.77846 10.7363 8.38816C11.1256 7.99786 11.6532 7.77676 12.2045 7.77282L12.2145 7.76782Z" fill="white"/>
</g>
<defs>
<clipPath id="clip0_2083_37">
<rect width="24" height="24" fill="white" transform="translate(0 0.947754)"/>
</clipPath>
</defs>
</svg>
