<svg width="16" height="16" viewBox="0 0 16 16" fill="none" xmlns="http://www.w3.org/2000/svg">
<g clip-path="url(#clip0_2027_1075)">
<path d="M8.0013 4.40928C5.99975 4.40928 4.38528 6.0124 4.38528 7.9999C4.38528 9.9874 5.99975 11.5905 8.0013 11.5905C10.0029 11.5905 11.6173 9.9874 11.6173 7.9999C11.6173 6.0124 10.0029 4.40928 8.0013 4.40928ZM8.0013 10.3343C6.70784 10.3343 5.65042 9.2874 5.65042 7.9999C5.65042 6.7124 6.7047 5.66553 8.0013 5.66553C9.29791 5.66553 10.3522 6.7124 10.3522 7.9999C10.3522 9.2874 9.29476 10.3343 8.0013 10.3343ZM12.6087 4.2624C12.6087 4.72803 12.231 5.0999 11.7652 5.0999C11.2963 5.0999 10.9218 4.7249 10.9218 4.2624C10.9218 3.7999 11.2995 3.4249 11.7652 3.4249C12.231 3.4249 12.6087 3.7999 12.6087 4.2624ZM15.0036 5.1124C14.9501 3.99053 14.692 2.99678 13.8643 2.17803C13.0398 1.35928 12.039 1.10303 10.9092 1.04678C9.74479 0.981152 6.25466 0.981152 5.09023 1.04678C3.96357 1.0999 2.96279 1.35615 2.13511 2.1749C1.30742 2.99365 1.0525 3.9874 0.995856 5.10928C0.929767 6.26553 0.929767 9.73115 0.995856 10.8874C1.04936 12.0093 1.30742 13.003 2.13511 13.8218C2.96279 14.6405 3.96042 14.8968 5.09023 14.953C6.25466 15.0187 9.74479 15.0187 10.9092 14.953C12.039 14.8999 13.0398 14.6437 13.8643 13.8218C14.6889 13.003 14.947 12.0093 15.0036 10.8874C15.0697 9.73115 15.0697 6.26865 15.0036 5.1124ZM13.4993 12.128C13.2538 12.7405 12.7786 13.2124 12.1586 13.4593C11.2302 13.8249 9.02726 13.7405 8.0013 13.7405C6.97535 13.7405 4.76923 13.8218 3.84398 13.4593C3.22715 13.2155 2.75194 12.7437 2.50332 12.128C2.13511 11.2062 2.22008 9.01865 2.22008 7.9999C2.22008 6.98115 2.13825 4.79053 2.50332 3.87178C2.74879 3.25928 3.224 2.7874 3.84398 2.54053C4.77238 2.1749 6.97535 2.25928 8.0013 2.25928C9.02726 2.25928 11.2334 2.17803 12.1586 2.54053C12.7755 2.78428 13.2507 3.25615 13.4993 3.87178C13.8675 4.79365 13.7825 6.98115 13.7825 7.9999C13.7825 9.01865 13.8675 11.2093 13.4993 12.128Z" fill="white"/>
</g>
<defs>
<clipPath id="clip0_2027_1075">
<rect width="16" height="16" fill="white"/>
</clipPath>
</defs>
</svg>
