<svg width="116" height="32" viewBox="0 0 116 32" fill="none" xmlns="http://www.w3.org/2000/svg">
<path d="M56.9781 10.4976C56.2443 10.4976 55.6494 11.0924 55.6494 11.8262V18.4675C55.6494 19.2013 56.2443 19.7962 56.9781 19.7962H62.6235V17.4715H57.9741V16.3092H60.2988V13.9846H57.9741V12.8222H62.6235V10.4976H56.9781Z" fill="white"/>
<path d="M49.4233 10.4976C48.6896 10.4976 48.0947 11.0924 48.0947 11.8262V14.9806C48.0947 15.7143 48.6896 16.3092 49.4233 16.3092H52.7441V17.4715H48.0947V19.7962H53.7401C54.4739 19.7962 55.0687 19.2013 55.0687 18.4675V15.3131C55.0687 14.5794 54.4739 13.9846 53.7401 13.9846H50.4194V12.8222H55.0687V10.4976H49.4233Z" fill="white"/>
<path d="M73.0844 10.4976H70.7598V19.7962H73.0844V10.4976Z" fill="white"/>
<path d="M90.5199 12.8222V10.4976H84.8746C84.1408 10.4976 83.5459 11.0924 83.5459 11.8262V18.4675C83.5459 19.2013 84.1408 19.7962 84.8746 19.7962H90.5199V17.4715L85.8706 17.6808V16.3092H88.1952V13.9846H85.8706V12.8222H90.5199Z" fill="white"/>
<path d="M75.9902 19.7962H81.6356C82.3694 19.7962 82.9642 19.2013 82.9642 18.4675V11.8262C82.9642 11.0924 82.3694 10.4976 81.6356 10.4976H75.9902V19.7962ZM80.6396 12.8222V17.4715H78.3149V12.8222H80.6396Z" fill="white"/>
<path d="M97.4936 20.3757C98.1355 20.3757 98.656 19.8553 98.656 19.2134H96.3313C95.6893 19.2134 95.1689 19.7337 95.1689 20.3757H97.4936Z" fill="white"/>
<path d="M88.7764 32.0002H89.9387C90.5806 32.0002 91.101 31.4798 91.101 30.8379H88.7764V32.0002Z" fill="white"/>
<path d="M49.4233 20.9585C48.6896 20.9585 48.0947 21.5534 48.0947 22.2872V28.9285C48.0947 29.6623 48.6896 30.2571 49.4233 30.2571H55.0687V27.9325H50.4194V26.7701H52.7441V24.4455H50.4194V23.2832H55.0687V20.9585H49.4233Z" fill="white"/>
<path d="M67.8534 27.9325H65.5288V20.9585H63.2041V28.9285C63.2041 29.6623 63.799 30.2571 64.5328 30.2571H68.8495C69.5833 30.2571 70.1781 29.6623 70.1781 28.9285V20.9585H67.8534V27.9325Z" fill="white"/>
<path d="M72.0884 20.9585C71.3546 20.9585 70.7598 21.5534 70.7598 22.2872V28.9285C70.7598 29.6623 71.3546 30.2571 72.0884 30.2571H77.7337V27.9325H73.0844V23.2832H77.7337V20.9585H72.0884Z" fill="white"/>
<path d="M87.1987 20.9585C86.4649 20.9585 85.8701 21.5534 85.8701 22.2872V28.9285C85.8701 29.6623 86.4649 30.2571 87.1987 30.2571H92.8441V27.9325H88.1947V23.2832H92.8441V20.9585H87.1987Z" fill="white"/>
<path d="M49.4233 0.0366211C48.6896 0.0366211 48.0947 0.631461 48.0947 1.36522V9.33523H50.4194V6.42938H55.0687V4.10477H50.4194V2.36123H55.0687V0.0366211H49.4233Z" fill="white"/>
<path d="M115.51 2.36123V0.0366211H109.865C109.131 0.0366211 108.536 0.631461 108.536 1.36521V8.00655C108.536 8.74035 109.131 9.33523 109.865 9.33523H115.51V7.01054H110.861V5.84823H113.185V3.52358H110.861V2.36123L115.51 2.36123Z" fill="white"/>
<path d="M64.5328 0.0366211C63.799 0.0366211 63.2041 0.631461 63.2041 1.36521V8.00655C63.2041 8.74035 63.799 9.33523 64.5328 9.33523H70.1781V7.01054H65.5288V2.36123H70.1781V0.0366211H64.5328Z" fill="white"/>
<path d="M64.5328 10.4976C63.799 10.4976 63.2041 11.0924 63.2041 11.8262V14.9806C63.2041 15.7143 63.799 16.3092 64.5328 16.3092H67.8534V17.4715H63.2041V19.7962H68.8495C69.5833 19.7962 70.1781 19.2013 70.1781 18.4675V15.3131C70.1781 14.5794 69.5833 13.9846 68.8495 13.9846H65.5288V12.8222H70.1781V10.4976H64.5328Z" fill="white"/>
<path d="M72.1128 9.29861H76.4295C77.1633 9.29861 77.7581 8.70373 77.7581 7.96993V0H75.4335V6.97392H73.1088V0H70.7842V7.96993C70.7842 8.70373 71.379 9.29861 72.1128 9.29861Z" fill="white"/>
<path d="M79.6441 9.33523H85.2895V7.01054H80.6401V0.0366211H78.3154V8.00655C78.3154 8.74035 78.9103 9.33523 79.6441 9.33523Z" fill="white"/>
<path d="M91.5155 0.0366211H85.8701V9.33523H91.5155C92.2493 9.33523 92.8441 8.74035 92.8441 8.00655V1.36522C92.8441 0.631461 92.2493 0.0366211 91.5155 0.0366211ZM90.5195 7.01054H88.1947V2.36123H90.5195V7.01054Z" fill="white"/>
<path d="M61.2948 20.9585H55.6494V30.2571H61.2948C62.0286 30.2571 62.6235 29.6623 62.6235 28.9285V22.2872C62.6235 21.5534 62.0286 20.9585 61.2948 20.9585ZM60.2988 27.9325H57.9741V23.2832H60.2988V27.9325Z" fill="white"/>
<path d="M61.2948 0.0366211H56.9781C56.2443 0.0366211 55.6494 0.631461 55.6494 1.36522V9.33523H57.9741V6.42938H60.2988V9.33523H62.6235V1.36522C62.6235 0.631461 62.0286 0.0366211 61.2948 0.0366211ZM60.2988 4.10477H57.9741V2.36123H60.2988V4.10477Z" fill="white"/>
<path d="M83.9608 20.9585H79.6441C78.9103 20.9585 78.3154 21.5534 78.3154 22.2872V30.2571H80.6401V26.7701H82.9648V30.2571H85.2895V22.2872C85.2895 21.5534 84.6946 20.9585 83.9608 20.9585ZM82.9648 24.4455H80.6401V23.2832H82.9648V24.4455Z" fill="white"/>
<path d="M99.0702 20.9585H94.7535C94.0197 20.9585 93.4248 21.5534 93.4248 22.2872V30.2571H95.7495V26.6867H98.0742V30.2571H100.399V22.2872C100.399 21.5534 99.804 20.9585 99.0702 20.9585ZM98.0742 24.3621H95.7495V23.2832H98.0742V24.3621Z" fill="white"/>
<path d="M106.626 20.9585H102.309C101.575 20.9585 100.98 21.5534 100.98 22.2872V28.9285C100.98 29.6623 101.575 30.2571 102.309 30.2571H106.626C107.36 30.2571 107.954 29.6623 107.954 28.9285V22.2872C107.954 21.5534 107.36 20.9585 106.626 20.9585ZM105.63 27.9325H103.305V23.2832H105.63V27.9325Z" fill="white"/>
<path d="M99.0702 0.0366211H94.7535C94.0197 0.0366211 93.4248 0.631461 93.4248 1.36522V9.33523H95.7495V6.42938H98.0742V9.33523H100.399V1.36522C100.399 0.631461 99.804 0.0366211 99.0702 0.0366211ZM98.0742 4.10477H95.7495V2.36123H98.0742V4.10477Z" fill="white"/>
<path d="M106.626 0.0366211H100.98V9.33523H106.626C107.36 9.33523 107.955 8.74035 107.955 8.00655V1.36522C107.955 0.631461 107.36 0.0366211 106.626 0.0366211ZM105.63 7.01054H103.305V2.36123H105.63V7.01054Z" fill="white"/>
<path d="M39.2445 24.159C39.104 24.159 38.823 24.0607 38.823 23.6954V22.8386C38.823 22.4875 39.104 22.375 39.2445 22.375H45.6782C45.8046 22.375 46.0996 22.5015 46.0996 22.8386V23.6954C46.0996 24.0467 45.8186 24.159 45.6782 24.159H45.2989C45.8608 24.763 46.2681 25.634 46.2681 26.6455C46.2681 28.6261 44.6949 30.2556 42.7283 30.2556H42.2085C40.2419 30.2556 38.6826 28.6261 38.6826 26.6455C38.6826 25.634 39.0759 24.763 39.6378 24.159H39.2445ZM42.5316 24.3136H42.4052C41.4077 24.3136 40.2559 25.0861 40.2559 26.4347C40.2559 27.7832 41.4077 28.5559 42.4052 28.5559H42.5316C43.5289 28.5559 44.6809 27.7832 44.6809 26.4347C44.6809 25.0861 43.5289 24.3136 42.5316 24.3136Z" fill="#E30513"/>
<path d="M39.2445 24.159C39.104 24.159 38.823 24.0607 38.823 23.6954V22.8386C38.823 22.4875 39.104 22.375 39.2445 22.375H45.6782C45.8046 22.375 46.0996 22.5015 46.0996 22.8386V23.6954C46.0996 24.0467 45.8186 24.159 45.6782 24.159H45.2989C45.8608 24.763 46.2681 25.634 46.2681 26.6455C46.2681 28.6261 44.6949 30.2556 42.7283 30.2556H42.2085C40.2419 30.2556 38.6826 28.6261 38.6826 26.6455C38.6826 25.634 39.0759 24.763 39.6378 24.159H39.2445ZM42.5316 24.3136H42.4052C41.4077 24.3136 40.2559 25.0861 40.2559 26.4347C40.2559 27.7832 41.4077 28.5559 42.4052 28.5559H42.5316C43.5289 28.5559 44.6809 27.7832 44.6809 26.4347C44.6809 25.0861 43.5289 24.3136 42.5316 24.3136Z" fill="white" fill-opacity="0.64"/>
<path d="M38.6826 17.2203C38.6826 15.1694 40.5228 14.439 41.6887 14.439H45.7625C45.8749 14.439 46.1277 14.5373 46.1277 14.8321V15.7594C46.1277 16.0543 45.8749 16.1527 45.7625 16.1527H41.6185C40.9302 16.1527 40.1436 16.7005 40.1436 17.5995C40.1436 18.7513 41.6607 19.3415 42.5035 19.3415H45.7625C45.8749 19.3415 46.1277 19.4398 46.1277 19.7346V20.7179C46.1277 21.013 45.8749 21.1113 45.7625 21.1113H39.2726C39.1321 21.1113 38.8512 20.999 38.8512 20.6619V19.7909C38.8512 19.4538 39.1321 19.3415 39.2726 19.3415H39.5535C39.0197 18.8638 38.6826 18.2317 38.6826 17.2203Z" fill="#E30513"/>
<path d="M38.6826 17.2203C38.6826 15.1694 40.5228 14.439 41.6887 14.439H45.7625C45.8749 14.439 46.1277 14.5373 46.1277 14.8321V15.7594C46.1277 16.0543 45.8749 16.1527 45.7625 16.1527H41.6185C40.9302 16.1527 40.1436 16.7005 40.1436 17.5995C40.1436 18.7513 41.6607 19.3415 42.5035 19.3415H45.7625C45.8749 19.3415 46.1277 19.4398 46.1277 19.7346V20.7179C46.1277 21.013 45.8749 21.1113 45.7625 21.1113H39.2726C39.1321 21.1113 38.8512 20.999 38.8512 20.6619V19.7909C38.8512 19.4538 39.1321 19.3415 39.2726 19.3415H39.5535C39.0197 18.8638 38.6826 18.2317 38.6826 17.2203Z" fill="white" fill-opacity="0.64"/>
<path d="M42.7277 13.5393H42.1939C40.2273 13.5393 38.668 11.9098 38.668 9.92915C38.668 7.94834 40.2273 6.31885 42.1939 6.31885H42.7277C44.6943 6.31885 46.2676 7.94834 46.2676 9.92915C46.2676 11.9098 44.6943 13.5393 42.7277 13.5393ZM42.7417 8.00459H42.1798C41.2808 8.00459 40.2553 8.72104 40.2553 9.92915C40.2553 11.1371 41.2808 11.8395 42.1798 11.8395H42.7417C43.6408 11.8395 44.6662 11.1371 44.6662 9.92915C44.6662 8.72104 43.6408 8.00459 42.7417 8.00459Z" fill="#E30513"/>
<path d="M42.7277 13.5393H42.1939C40.2273 13.5393 38.668 11.9098 38.668 9.92915C38.668 7.94834 40.2273 6.31885 42.1939 6.31885H42.7277C44.6943 6.31885 46.2676 7.94834 46.2676 9.92915C46.2676 11.9098 44.6943 13.5393 42.7277 13.5393ZM42.7417 8.00459H42.1798C41.2808 8.00459 40.2553 8.72104 40.2553 9.92915C40.2553 11.1371 41.2808 11.8395 42.1798 11.8395H42.7417C43.6408 11.8395 44.6662 11.1371 44.6662 9.92915C44.6662 8.72104 43.6408 8.00459 42.7417 8.00459Z" fill="white" fill-opacity="0.64"/>
<path d="M42.4465 0.896779C42.8398 0.334865 43.4158 0.0820312 43.9636 0.0820312H44.1603C45.4245 0.0820312 46.2673 1.12158 46.2673 2.79312C46.2673 4.57716 45.2138 5.51841 43.9776 5.51841H43.7248C43.6124 5.51841 43.3736 5.43413 43.3736 5.12505V4.12774C43.3736 3.83267 43.6124 3.74839 43.7248 3.74839H43.8653C44.3428 3.74839 44.7362 3.36905 44.7362 2.79312C44.7362 2.16113 44.5536 1.86607 44.09 1.86607C43.9074 1.86607 43.795 1.95034 43.7107 2.13292C43.3595 2.79312 43.0224 3.46753 42.6712 4.12774C42.1234 5.1671 41.5474 5.51841 40.6063 5.51841C39.4544 5.51841 38.6396 4.52091 38.6396 2.98989C38.6396 1.33218 39.3982 0.222556 40.6905 0.222556H40.8872C40.9855 0.222556 41.2243 0.306834 41.2243 0.601898V1.62725C41.2243 1.8941 41.0558 1.97838 40.9575 1.99258C40.9012 2.00659 40.8591 2.00659 40.8029 2.00659C40.1849 2.00659 40.0303 2.35772 40.0303 2.93365C40.0303 3.45333 40.1849 3.7484 40.5501 3.7484C40.8451 3.7484 41.126 3.46753 41.2946 3.1022C41.6036 2.51226 41.9127 1.8941 42.2217 1.29014C42.2498 1.21988 42.2919 1.16363 42.3201 1.09355C42.3622 1.02329 42.4043 0.967041 42.4465 0.896779Z" fill="#E30513"/>
<path d="M42.4465 0.896779C42.8398 0.334865 43.4158 0.0820312 43.9636 0.0820312H44.1603C45.4245 0.0820312 46.2673 1.12158 46.2673 2.79312C46.2673 4.57716 45.2138 5.51841 43.9776 5.51841H43.7248C43.6124 5.51841 43.3736 5.43413 43.3736 5.12505V4.12774C43.3736 3.83267 43.6124 3.74839 43.7248 3.74839H43.8653C44.3428 3.74839 44.7362 3.36905 44.7362 2.79312C44.7362 2.16113 44.5536 1.86607 44.09 1.86607C43.9074 1.86607 43.795 1.95034 43.7107 2.13292C43.3595 2.79312 43.0224 3.46753 42.6712 4.12774C42.1234 5.1671 41.5474 5.51841 40.6063 5.51841C39.4544 5.51841 38.6396 4.52091 38.6396 2.98989C38.6396 1.33218 39.3982 0.222556 40.6905 0.222556H40.8872C40.9855 0.222556 41.2243 0.306834 41.2243 0.601898V1.62725C41.2243 1.8941 41.0558 1.97838 40.9575 1.99258C40.9012 2.00659 40.8591 2.00659 40.8029 2.00659C40.1849 2.00659 40.0303 2.35772 40.0303 2.93365C40.0303 3.45333 40.1849 3.7484 40.5501 3.7484C40.8451 3.7484 41.126 3.46753 41.2946 3.1022C41.6036 2.51226 41.9127 1.8941 42.2217 1.29014C42.2498 1.21988 42.2919 1.16363 42.3201 1.09355C42.3622 1.02329 42.4043 0.967041 42.4465 0.896779Z" fill="white" fill-opacity="0.64"/>
<path d="M30.9217 0.0375977H22.2896C19.1099 0.0375977 16.5322 2.61525 16.5322 5.79495V24.5004C16.5322 27.6801 19.1099 30.2577 22.2896 30.2577H30.9217C34.1014 30.2577 36.6791 27.6801 36.6791 24.5004V5.79495C36.6791 2.61525 34.1014 0.0375977 30.9217 0.0375977Z" fill="white"/>
<path d="M15.1102 0.0375977V30.2572H5.75743C5.51361 30.2572 5.27294 30.2415 5.03644 30.2121V10.1105H0V5.795C0 2.61492 2.57734 0.0375977 5.75743 0.0375977H15.1102Z" fill="white"/>
</svg>
