<svg width="16" height="16" viewBox="0 0 16 16" fill="none" xmlns="http://www.w3.org/2000/svg">
<path d="M15.0507 4.42289C14.8809 3.78014 14.3825 3.27571 13.7493 3.10485C12.6016 2.79297 7.99971 2.79297 7.99971 2.79297C7.99971 2.79297 3.39786 2.79297 2.25009 3.10485C1.61694 3.27571 1.11849 3.78014 0.948751 4.42289C0.641602 5.58635 0.641602 8.01089 0.641602 8.01089C0.641602 8.01089 0.641602 10.4354 0.948751 11.5989C1.11849 12.2416 1.61694 12.7244 2.25009 12.8952C3.39786 13.2071 7.99971 13.2071 7.99971 13.2071C7.99971 13.2071 12.6016 13.2071 13.7493 12.8952C14.3825 12.7244 14.8809 12.2389 15.0507 11.5989C15.3578 10.4354 15.3578 8.01089 15.3578 8.01089C15.3578 8.01089 15.3578 5.58635 15.0507 4.42289ZM6.4963 10.2131V5.80873L10.3411 8.01089L6.4963 10.2131Z" fill="white"/>
</svg>
