<svg width="1366" height="704" viewBox="0 0 1366 704" fill="none" xmlns="http://www.w3.org/2000/svg">
<g clip-path="url(#clip0_2008_463)">
<path d="M683 -160.158H0.117188V864.153H683V-160.158Z" fill="#FFCD1C"/>
<path d="M682.997 181.28H341.559L682.997 -160.158V181.28Z" fill="#F18426"/>
<path d="M0.119278 522.719L0.119293 181.282L341.558 522.719L0.119278 522.719Z" fill="#B20F0B"/>
<path d="M341.559 522.72V181.281H682.997L341.559 522.72Z" fill="#FFCD1C"/>
<path d="M0.120117 864.157V522.719H341.558L0.120117 864.157Z" fill="#CF9792"/>
<path d="M0.117188 -160.158H341.555V10.5583C341.555 104.782 265.058 181.28 170.834 181.28H0.117188V-160.158Z" fill="#B5CD57"/>
<path d="M683 864.157L341.562 864.157L341.562 693.441C341.562 599.217 418.06 522.719 512.283 522.719L683 522.719L683 864.157Z" fill="#B5CD57"/>
<path d="M1024.45 -160.16H683.011V181.278H1024.45V-160.16Z" fill="#B5CD57"/>
<path d="M1365.89 -160.16H1024.45V181.278H1365.89V-160.16Z" fill="#2B7980"/>
<path d="M1024.45 181.279H683.011V864.155H1024.45V181.279Z" fill="#FFCD1C"/>
<path d="M1365.89 181.279H1024.45V864.155H1365.89V181.279Z" fill="#B20F0B"/>
<path d="M1195.17 -160.16H1365.88V181.278H1024.45V10.5616C1024.45 -83.6623 1100.94 -160.16 1195.17 -160.16Z" fill="#B5CD57"/>
<path d="M683 181.281V-160.158L1024.44 -160.158L683 181.281Z" fill="#2B7980"/>
<path d="M1024.45 522.722L1365.89 522.722L1365.89 864.16L1024.45 522.722Z" fill="#F18426"/>
<path d="M1024.45 522.717L683.008 522.717L683.008 181.279L853.725 181.279C947.948 181.279 1024.45 257.777 1024.45 352.001L1024.45 522.717Z" fill="#F18426"/>
<path d="M1365.88 522.722L1024.44 522.722L1024.44 352.005C1024.44 257.781 1100.94 181.283 1195.17 181.283L1365.88 181.283L1365.88 522.722Z" fill="#FFCD1C"/>
<path d="M853.728 522.722H1024.44V864.16H683.006V693.443C683.006 599.219 759.504 522.722 853.728 522.722Z" fill="#CF9792"/>
</g>
<defs>
<clipPath id="clip0_2008_463">
<rect width="1365.77" height="704" fill="white" transform="translate(0.117188)"/>
</clipPath>
</defs>
</svg>
