<svg width="51" height="17" viewBox="0 0 51 17" fill="none" xmlns="http://www.w3.org/2000/svg">
<path d="M50.0146 0.5H0.5V16.5H50.0146V0.5Z" fill="#E40520"/>
<path d="M0.5 13.3211H3.87066V13.7478H0.5V13.3211ZM0.5 10.6331H3.87066V11.0598H0.5V10.6331ZM0.5 7.83844H3.87066V8.26511H0.5V7.83844ZM0.5 5.08644H3.87066V5.5131H0.5V5.08644ZM0.5 2.39844H3.87066V2.8251H0.5V2.39844Z" fill="white"/>
<path d="M46.665 13.7479H50.0357V14.1745H46.665V13.7479ZM46.665 11.0599H50.0357V11.4865H46.665V11.0599ZM46.665 8.2652H50.0357V8.69186H46.665V8.2652ZM46.665 5.5132H50.0357V5.93986H46.665V5.5132ZM46.665 2.8252H50.0357V3.25186H46.665V2.8252Z" fill="white"/>
<path d="M16.2439 6.324C17.0545 3.444 14.7079 2.56934 12.2545 2.56934C9.75853 2.56934 7.1132 3.33734 6.38787 6.17467C6.11053 7.45467 6.4732 8.564 7.5612 9.076C9.90786 10.2067 12.4252 9.86534 12.0839 11.4867C11.9132 12.276 10.8679 12.6813 10.0999 12.6813C8.9052 12.6813 8.22253 12.0627 8.47853 10.9533H5.15053C4.51053 14.196 6.7932 15.0067 9.56653 15.0067C12.3185 15.0067 15.0492 13.812 15.5825 11.2947C16.2652 8.07334 13.4065 7.88134 11.5079 7.36934C10.6759 7.13467 9.69453 6.85734 9.86519 5.98267C9.99319 5.38534 10.7612 4.89467 11.5079 4.89467C12.0625 4.89467 12.4679 5.02267 12.7025 5.27867C12.9372 5.53467 13.0225 5.876 12.9159 6.34534L16.2439 6.324ZM25.8012 14.7507L26.2918 12.4467H20.5105L21.0438 9.908H26.3558L26.8465 7.604H21.5345L22.0678 5.15067H27.8492L28.3398 2.84667H19.2518L16.7132 14.7507H25.8012ZM39.1985 6.324C40.0092 3.444 37.6625 2.56934 35.2092 2.56934C32.7132 2.56934 30.0678 3.33734 29.3425 6.17467C29.0652 7.45467 29.4278 8.564 30.5158 9.076C32.8625 10.2067 35.3798 9.86534 35.0385 11.4867C34.8678 12.276 33.8225 12.6813 33.0545 12.6813C31.8598 12.6813 31.1772 12.0627 31.4332 10.9533H28.1052C27.4652 14.196 29.7478 15.0067 32.5212 15.0067C35.2732 15.0067 38.0038 13.812 38.5372 11.2947C39.2198 8.07334 36.3612 7.88134 34.4625 7.36934C33.6305 7.13467 32.6492 6.85734 32.8198 5.98267C32.9478 5.38534 33.7158 4.89467 34.4625 4.89467C35.0172 4.89467 35.4225 5.02267 35.6572 5.27867C35.8918 5.53467 35.9772 5.876 35.8705 6.34534L39.1985 6.324ZM42.9318 14.7507L45.4705 2.82534H42.1638L39.6252 14.7507H42.9318Z" fill="white"/>
</svg>
