<svg width="87" height="25" viewBox="0 0 87 25" fill="none" xmlns="http://www.w3.org/2000/svg">
<path d="M42.7699 8.37305C42.2196 8.37305 41.7734 8.81918 41.7734 9.36952V14.3505C41.7734 14.9008 42.2196 15.347 42.7699 15.347H47.004V13.6035H43.517V12.7318H45.2605V10.9883H43.517V10.1165H47.004V8.37305H42.7699Z" fill="#D00602"/>
<path d="M37.1039 8.37305C36.5536 8.37305 36.1074 8.81918 36.1074 9.36952V11.7353C36.1074 12.2856 36.5536 12.7318 37.1039 12.7318H39.5944V13.6035H36.1074V15.347H40.3414C40.8918 15.347 41.3379 14.9008 41.3379 14.3505V11.9847C41.3379 11.4344 40.8918 10.9883 40.3414 10.9883H37.851V10.1165H41.3379V8.37305H37.1039Z" fill="#D00602"/>
<path d="M54.8499 8.37305H53.1064V15.347H54.8499V8.37305Z" fill="#D00602"/>
<path d="M67.9258 10.1165V8.37305H63.6918C63.1415 8.37305 62.6953 8.81918 62.6953 9.36952V14.3505C62.6953 14.9008 63.1415 15.347 63.6918 15.347H67.9258V13.6035L64.4388 13.7605V12.7318H66.1823V10.9883H64.4388V10.1165H67.9258Z" fill="#D00602"/>
<path d="M57.0293 15.347H61.2633C61.8137 15.347 62.2598 14.9008 62.2598 14.3505V9.36952C62.2598 8.81918 61.8137 8.37305 61.2633 8.37305H57.0293V15.347ZM60.5163 10.1165V13.6035H58.7728V10.1165H60.5163Z" fill="#D00602"/>
<path d="M73.1566 15.7819C73.638 15.7819 74.0284 15.3916 74.0284 14.9102H72.2848C71.8034 14.9102 71.4131 15.3004 71.4131 15.7819H73.1566Z" fill="#D00602"/>
<path d="M66.6182 24.5002H67.4899C67.9714 24.5002 68.3616 24.1099 68.3616 23.6284H66.6182V24.5002Z" fill="#D00602"/>
<path d="M37.1039 16.2188C36.5536 16.2188 36.1074 16.6649 36.1074 17.2153V22.1963C36.1074 22.7466 36.5536 23.1927 37.1039 23.1927H41.3379V21.4492H37.851V20.5775H39.5944V18.834H37.851V17.9623H41.3379V16.2188H37.1039Z" fill="#D00602"/>
<path d="M50.9264 21.4492H49.183V16.2188H47.4395V22.1963C47.4395 22.7466 47.8856 23.1927 48.436 23.1927H51.6735C52.2238 23.1927 52.67 22.7466 52.67 22.1963V16.2188H50.9264V21.4492Z" fill="#D00602"/>
<path d="M54.1029 16.2188C53.5525 16.2188 53.1064 16.6649 53.1064 17.2153V22.1963C53.1064 22.7466 53.5525 23.1927 54.1029 23.1927H58.3369V21.4492H54.8499V17.9623H58.3369V16.2188H54.1029Z" fill="#D00602"/>
<path d="M65.4359 16.2188C64.8856 16.2188 64.4395 16.6649 64.4395 17.2153V22.1963C64.4395 22.7466 64.8856 23.1927 65.4359 23.1927H69.6699V21.4492H66.1829V17.9623H69.6699V16.2188H65.4359Z" fill="#D00602"/>
<path d="M37.1039 0.527344C36.5536 0.527344 36.1074 0.973474 36.1074 1.52379V7.5013H37.851V5.32192H41.3379V3.57846H37.851V2.2708H41.3379V0.527344H37.1039Z" fill="#D00602"/>
<path d="M86.6689 2.2708V0.527344H82.4349C81.8846 0.527344 81.4385 0.973474 81.4385 1.52379V6.50479C81.4385 7.05514 81.8846 7.5013 82.4349 7.5013H86.6689V5.75778H83.1819V4.88605H84.9254V3.14256H83.1819V2.2708L86.6689 2.2708Z" fill="#D00602"/>
<path d="M48.436 0.527344C47.8856 0.527344 47.4395 0.973474 47.4395 1.52379V6.50479C47.4395 7.05514 47.8856 7.5013 48.436 7.5013H52.67V5.75778H49.183V2.2708H52.67V0.527344H48.436Z" fill="#D00602"/>
<path d="M48.436 8.37305C47.8856 8.37305 47.4395 8.81918 47.4395 9.36952V11.7353C47.4395 12.2856 47.8856 12.7318 48.436 12.7318H50.9265V13.6035H47.4395V15.347H51.6735C52.2238 15.347 52.67 14.9008 52.67 14.3505V11.9847C52.67 11.4344 52.2238 10.9883 51.6735 10.9883H49.183V10.1165H52.67V8.37305H48.436Z" fill="#D00602"/>
<path d="M54.1205 7.47396H57.358C57.9084 7.47396 58.3545 7.02779 58.3545 6.47745V0.5H56.611V5.73044H54.8675V0.5H53.124V6.47745C53.124 7.0278 53.5701 7.47396 54.1205 7.47396Z" fill="#D00602"/>
<path d="M59.769 7.5013H64.003V5.75778H60.516V0.527344H58.7725V6.50479C58.7725 7.05514 59.2186 7.5013 59.769 7.5013Z" fill="#D00602"/>
<path d="M68.6735 0.527344H64.4395V7.5013H68.6735C69.2238 7.5013 69.6699 7.05514 69.6699 6.50479V1.52379C69.6699 0.973474 69.2238 0.527344 68.6735 0.527344ZM67.9265 5.75778H66.1829V2.2708H67.9265V5.75778Z" fill="#D00602"/>
<path d="M46.0075 16.2188H41.7734V23.1927H46.0075C46.5578 23.1927 47.004 22.7466 47.004 22.1963V17.2153C47.004 16.6649 46.5578 16.2188 46.0075 16.2188ZM45.2605 21.4492H43.517V17.9623H45.2605V21.4492Z" fill="#D00602"/>
<path d="M46.0075 0.527344H42.7699C42.2196 0.527344 41.7734 0.973474 41.7734 1.52379V7.5013H43.517V5.32192H45.2605V7.5013H47.004V1.52379C47.004 0.973474 46.5578 0.527344 46.0075 0.527344ZM45.2605 3.57846H43.517V2.2708H45.2605V3.57846Z" fill="#D00602"/>
<path d="M63.0065 16.2188H59.769C59.2186 16.2188 58.7725 16.6649 58.7725 17.2153V23.1927H60.516V20.5775H62.2595V23.1927H64.003V17.2153C64.003 16.6649 63.5568 16.2188 63.0065 16.2188ZM62.2595 18.834H60.516V17.9623H62.2595V18.834Z" fill="#D00602"/>
<path d="M74.3395 16.2188H71.102C70.5516 16.2188 70.1055 16.6649 70.1055 17.2153V23.1927H71.849V20.5149H73.5925V23.1927H75.336V17.2153C75.336 16.6649 74.8898 16.2188 74.3395 16.2188ZM73.5925 18.7714H71.849V17.9623H73.5925V18.7714Z" fill="#D00602"/>
<path d="M80.0055 16.2188H76.768C76.2176 16.2188 75.7715 16.6649 75.7715 17.2153V22.1963C75.7715 22.7466 76.2176 23.1927 76.768 23.1927H80.0055C80.5559 23.1927 81.002 22.7466 81.002 22.1963V17.2153C81.002 16.6649 80.5559 16.2188 80.0055 16.2188ZM79.2585 21.4492H77.515V17.9623H79.2585V21.4492Z" fill="#D00602"/>
<path d="M74.3395 0.527344H71.102C70.5516 0.527344 70.1055 0.973474 70.1055 1.52379V7.5013H71.849V5.32192H73.5925V7.5013H75.336V1.52379C75.336 0.973474 74.8898 0.527344 74.3395 0.527344ZM73.5925 3.57846H71.849V2.2708H73.5925V3.57846Z" fill="#D00602"/>
<path d="M80.0055 0.527344H75.7715V7.5013H80.0055C80.5559 7.5013 81.002 7.05514 81.002 6.50479V1.52379C81.002 0.973474 80.5559 0.527344 80.0055 0.527344ZM79.2585 5.75778H77.515V2.2708H79.2585V5.75778Z" fill="#D00602"/>
<path d="M29.4693 18.6193C29.3639 18.6193 29.1532 18.5456 29.1532 18.2716V17.629C29.1532 17.3656 29.3639 17.2812 29.4693 17.2812H34.2945C34.3893 17.2812 34.6106 17.3761 34.6106 17.629V18.2716C34.6106 18.535 34.3999 18.6193 34.2945 18.6193H34.0101C34.4315 19.0722 34.737 19.7255 34.737 20.4841C34.737 21.9696 33.557 23.1917 32.0821 23.1917H31.6922C30.2173 23.1917 29.0479 21.9696 29.0479 20.4841C29.0479 19.7255 29.3428 19.0722 29.7642 18.6193H29.4693ZM31.9346 18.7352H31.8398C31.0917 18.7352 30.2278 19.3146 30.2278 20.326C30.2278 21.3374 31.0917 21.9169 31.8398 21.9169H31.9346C32.6826 21.9169 33.5465 21.3374 33.5465 20.326C33.5465 19.3146 32.6826 18.7352 31.9346 18.7352Z" fill="#565656"/>
<path d="M29.0479 13.4151C29.0479 11.877 30.428 11.3291 31.3024 11.3291H34.3577C34.442 11.3291 34.6317 11.4028 34.6317 11.624V12.3194C34.6317 12.5406 34.442 12.6144 34.3577 12.6144H31.2498C30.7335 12.6144 30.1436 13.0252 30.1436 13.6995C30.1436 14.5634 31.2814 15.006 31.9135 15.006H34.3577C34.442 15.006 34.6317 15.0797 34.6317 15.3009V16.0383C34.6317 16.2596 34.442 16.3334 34.3577 16.3334H29.4903C29.385 16.3334 29.1743 16.2491 29.1743 15.9963V15.343C29.1743 15.0902 29.385 15.006 29.4903 15.006H29.701C29.3007 14.6477 29.0479 14.1736 29.0479 13.4151Z" fill="#565656"/>
<path d="M32.0819 10.6546H31.6816C30.2066 10.6546 29.0371 9.43245 29.0371 7.94698C29.0371 6.46138 30.2066 5.23926 31.6816 5.23926H32.0819C33.5569 5.23926 34.7368 6.46138 34.7368 7.94698C34.7368 9.43245 33.5569 10.6546 32.0819 10.6546ZM32.0924 6.50356H31.671C30.9967 6.50356 30.2276 7.0409 30.2276 7.94698C30.2276 8.85292 30.9967 9.37975 31.671 9.37975H32.0924C32.7667 9.37975 33.5358 8.85292 33.5358 7.94698C33.5358 7.0409 32.7667 6.50356 32.0924 6.50356Z" fill="#565656"/>
<path d="M31.8707 1.17258C32.1658 0.751149 32.5977 0.561523 33.0086 0.561523H33.1561C34.1043 0.561523 34.7364 1.34119 34.7364 2.59484C34.7364 3.93287 33.9463 4.63881 33.0191 4.63881H32.8295C32.7452 4.63881 32.5661 4.5756 32.5661 4.34379V3.5958C32.5661 3.3745 32.7452 3.3113 32.8295 3.3113H32.9348C33.293 3.3113 33.588 3.02679 33.588 2.59484C33.588 2.12085 33.4511 1.89955 33.1034 1.89955C32.9665 1.89955 32.8821 1.96276 32.8189 2.09969C32.5555 2.59484 32.3027 3.10065 32.0393 3.5958C31.6284 4.37533 31.1965 4.63881 30.4906 4.63881C29.6267 4.63881 29.0156 3.89068 29.0156 2.74242C29.0156 1.49914 29.5845 0.666917 30.5538 0.666917H30.7013C30.775 0.666917 30.9541 0.730125 30.9541 0.951423V1.72044C30.9541 1.92057 30.8277 1.98378 30.754 1.99443C30.7118 2.00494 30.6802 2.00494 30.6381 2.00494C30.1745 2.00494 30.0586 2.26829 30.0586 2.70024C30.0586 3.09 30.1745 3.3113 30.4485 3.3113C30.6697 3.3113 30.8804 3.10065 31.0068 2.82665C31.2386 2.38419 31.4704 1.92057 31.7021 1.4676C31.7232 1.41491 31.7548 1.37272 31.7759 1.32016C31.8075 1.26747 31.8391 1.22528 31.8707 1.17258Z" fill="#565656"/>
<path d="M23.2277 0.52832H16.7536C14.3688 0.52832 12.4355 2.46156 12.4355 4.84633V18.8754C12.4355 21.2602 14.3688 23.1934 16.7536 23.1934H23.2277C25.6125 23.1934 27.5457 21.2602 27.5457 18.8754V4.84633C27.5457 2.46156 25.6125 0.52832 23.2277 0.52832Z" fill="#D00602"/>
<path d="M11.3688 0.52832V23.193H4.35421C4.17134 23.193 3.99084 23.1812 3.81347 23.1592V8.08297H0.0361328V4.84637C0.0361328 2.46131 1.96914 0.52832 4.35421 0.52832H11.3688Z" fill="#D00602"/>
</svg>
