<svg width="50" height="16" viewBox="0 0 50 16" fill="none" xmlns="http://www.w3.org/2000/svg">
<path d="M49.5137 2.3252H46.165V2.75195H49.5137V5.01367H46.165V5.43945H49.5137V7.76562H46.165V8.19141H49.5137V10.5596H46.165V10.9863H49.5137V13.248H46.165V13.6748H49.5137V16H0V13.248H3.37012V12.8213H0V10.5596H3.37012V10.1328H0V7.76465H3.37012V7.33887H0V5.0127H3.37012V4.58691H0V2.3252H3.37012V1.89844H0V0H49.5137V2.3252ZM11.7539 2.06934C9.25802 2.06941 6.61299 2.83761 5.8877 5.6748C5.61043 6.95465 5.97279 8.06413 7.06055 8.57617C9.40702 9.70675 11.9248 9.36545 11.584 10.9863C11.4133 11.7757 10.3676 12.1816 9.59961 12.1816C8.40495 12.1816 7.72252 11.5625 7.97852 10.4531H4.65039C4.01039 13.6958 6.29308 14.5068 9.06641 14.5068C11.8183 14.5068 14.5486 13.312 15.082 10.7949C15.7647 7.57366 12.9065 7.38111 11.0078 6.86914C10.1758 6.63447 9.19457 6.35709 9.36523 5.48242C9.49342 4.88522 10.2613 4.39453 11.0078 4.39453C11.5622 4.39456 11.9675 4.52252 12.2021 4.77832C12.4368 5.03432 12.5227 5.37637 12.416 5.8457L15.7432 5.82422C16.5538 2.94422 14.2072 2.06934 11.7539 2.06934ZM34.709 2.06934C32.213 2.06934 29.5671 2.83747 28.8418 5.6748C28.5646 6.95471 28.9277 8.0642 30.0156 8.57617C32.3621 9.70671 34.879 9.36535 34.5381 10.9863C34.3675 11.7755 33.3226 12.1815 32.5547 12.1816C31.36 12.1816 30.6766 11.5625 30.9326 10.4531H27.6045C26.9645 13.6956 29.2474 14.5068 32.0205 14.5068C34.7724 14.5068 37.5037 13.3121 38.0371 10.7949C38.7198 7.57359 35.8606 7.38114 33.9619 6.86914C33.13 6.6345 32.1487 6.35696 32.3193 5.48242C32.4474 4.88526 33.2154 4.39468 33.9619 4.39453C34.5166 4.39453 34.9226 4.52234 35.1572 4.77832C35.3919 5.03432 35.4768 5.37637 35.3701 5.8457L38.6982 5.82422C39.5089 2.94425 37.1623 2.06935 34.709 2.06934ZM16.2129 14.251H25.3008L25.792 11.9463H20.0107L20.5439 9.4082H25.8555L26.3467 7.10352H21.0342L21.5674 4.65039H27.3486L27.8398 2.34668H18.752L16.2129 14.251ZM39.125 14.251H42.4316L44.9707 2.3252H41.6631L39.125 14.251ZM49.5361 13.6748H49.5137V13.248H49.5361V13.6748ZM49.5361 10.9863H49.5137V10.5596H49.5361V10.9863ZM49.5361 8.19141H49.5137V7.76562H49.5361V8.19141ZM49.5361 5.43945H49.5137V5.01367H49.5361V5.43945ZM49.5361 2.75195H49.5137V2.3252H49.5361V2.75195Z" fill="#A7A7A7"/>
</svg>
