<svg width="50" height="16" viewBox="0 0 50 16" fill="none" xmlns="http://www.w3.org/2000/svg">
<path d="M49.5146 2.3252H46.166V2.75195H49.5146V5.01367H46.166V5.43945H49.5146V7.76562H46.166V8.19141H49.5146V10.5596H46.166V10.9863H49.5146V13.248H46.166V13.6748H49.5146V16H0V13.248H3.37109V12.8213H0V10.5596H3.37109V10.1328H0V7.76465H3.37109V7.33887H0V5.0127H3.37109V4.58691H0V2.3252H3.37109V1.89844H0V0H49.5146V2.3252ZM11.7549 2.06934C9.259 2.06941 6.61397 2.83761 5.88867 5.6748C5.61141 6.95465 5.97377 8.06413 7.06152 8.57617C9.40799 9.70675 11.9258 9.36545 11.585 10.9863C11.4143 11.7757 10.3686 12.1816 9.60059 12.1816C8.40592 12.1816 7.72349 11.5625 7.97949 10.4531H4.65137C4.01137 13.6958 6.29405 14.5068 9.06738 14.5068C11.8192 14.5068 14.5495 13.312 15.083 10.7949C15.7657 7.57366 12.9075 7.38111 11.0088 6.86914C10.1768 6.63447 9.19554 6.35709 9.36621 5.48242C9.4944 4.88522 10.2622 4.39453 11.0088 4.39453C11.5632 4.39456 11.9685 4.52252 12.2031 4.77832C12.4378 5.03432 12.5237 5.37637 12.417 5.8457L15.7441 5.82422C16.5548 2.94422 14.2082 2.06934 11.7549 2.06934ZM34.71 2.06934C32.214 2.06934 29.5681 2.83747 28.8428 5.6748C28.5655 6.95471 28.9287 8.0642 30.0166 8.57617C32.3631 9.70671 34.88 9.36535 34.5391 10.9863C34.3684 11.7755 33.3236 12.1815 32.5557 12.1816C31.361 12.1816 30.6776 11.5625 30.9336 10.4531H27.6055C26.9655 13.6956 29.2483 14.5068 32.0215 14.5068C34.7734 14.5068 37.5047 13.3121 38.0381 10.7949C38.7208 7.57359 35.8616 7.38114 33.9629 6.86914C33.131 6.6345 32.1497 6.35696 32.3203 5.48242C32.4484 4.88526 33.2164 4.39468 33.9629 4.39453C34.5175 4.39453 34.9235 4.52234 35.1582 4.77832C35.3929 5.03432 35.4778 5.37637 35.3711 5.8457L38.6992 5.82422C39.5099 2.94425 37.1633 2.06935 34.71 2.06934ZM16.2139 14.251H25.3018L25.793 11.9463H20.0117L20.5449 9.4082H25.8564L26.3477 7.10352H21.0352L21.5684 4.65039H27.3496L27.8408 2.34668H18.7529L16.2139 14.251ZM39.126 14.251H42.4326L44.9717 2.3252H41.6641L39.126 14.251ZM49.5371 13.6748H49.5146V13.248H49.5371V13.6748ZM49.5371 10.9863H49.5146V10.5596H49.5371V10.9863ZM49.5371 8.19141H49.5146V7.76562H49.5371V8.19141ZM49.5371 5.43945H49.5146V5.01367H49.5371V5.43945ZM49.5371 2.75195H49.5146V2.3252H49.5371V2.75195Z" fill="white"/>
</svg>
